<svg width="46" height="27" viewBox="0 0 46 27" fill="none" xmlns="http://www.w3.org/2000/svg">
<g clip-path="url(#clip0_222_8345)">
<path d="M45.9972 21.6966C45.9972 15.9561 45.9972 10.2166 45.9972 4.47606C46.0013 3.90751 46.0095 3.32673 45.839 2.77754C45.4058 1.22676 43.9037 0.0519642 42.2795 0.011208C41.2528 -0.00305672 37.3134 0.00101891 34.8493 0.00305672C34.8021 -0.00101891 34.7549 -0.00101891 34.7066 0.00305672C34.1666 0.00305672 33.6255 0.00305672 33.0854 0.00305672C33.0762 0.00305672 33.0659 0.00305672 33.0567 0.00305672C33.0146 -0.00101891 32.9715 0 32.9294 0.00305672C23.1922 0.00509453 13.4551 -0.00713235 3.71892 0.011208C2.58853 0.0489075 1.49715 0.616438 0.810294 1.50594C0.263066 2.19982 -0.0161948 3.08423 0.00125903 3.96253C0.00433912 10.3816 -0.00387444 16.8007 0.00536581 23.2188C0.011526 24.7289 1.01769 26.1584 2.42836 26.7106C3.15116 27.0214 3.94992 27.0051 4.72097 26.9969C17.1101 26.9969 29.4982 26.9959 41.8873 26.9969C42.4314 27.002 42.9828 26.9368 43.493 26.7412C44.7497 26.2786 45.7138 25.1242 45.9356 23.8118C46.0444 23.1119 45.9797 22.4017 45.9972 21.6966ZM44.3493 23.2209C44.3421 24.3896 43.2682 25.3993 42.0947 25.3636C29.3657 25.3677 16.6358 25.3677 3.9068 25.3636C2.73227 25.4013 1.65424 24.3896 1.64808 23.2199C1.63884 16.7641 1.645 10.3093 1.645 3.8535C1.61317 2.6624 2.6953 1.59866 3.89448 1.63534C13.6727 1.62719 23.453 1.63636 33.2323 1.63025C35.0023 1.6384 40.7703 1.62821 41.9982 1.63229C43.2754 1.54161 44.4407 2.68788 44.3544 3.95641C44.3503 10.3786 44.3616 16.7997 44.3493 23.2209Z" fill="white"/>
<path d="M5.36234 3.17072C4.02764 3.46926 3.08103 4.87229 3.32436 6.21113C3.51327 7.65085 5.03072 8.7533 6.47117 8.44967C7.92189 8.22144 8.96809 6.68594 8.6416 5.26355C8.38904 3.81772 6.79869 2.78047 5.36234 3.17072ZM5.96193 6.86527C5.40341 6.85508 4.91676 6.35378 4.92908 5.79949C4.91881 5.3797 5.18986 4.9752 5.57692 4.81217C6.20834 4.50854 7.01429 5.00882 7.05331 5.69353C7.13031 6.30385 6.58308 6.89584 5.96193 6.86527Z" fill="white"/>
<path d="M14.9918 8.44802C16.4251 8.21061 17.462 6.69448 17.1479 5.28329C16.9066 3.83441 15.3193 2.78494 13.8789 3.16703C12.538 3.45945 11.5842 4.86554 11.8275 6.20948C12.0144 7.65735 13.5462 8.76184 14.9918 8.44802ZM14.0935 4.80747C14.7238 4.51606 15.5175 5.0143 15.5565 5.69493C15.6325 6.3022 15.0935 6.88705 14.4774 6.86566C13.9117 6.86362 13.4148 6.35315 13.4312 5.79173C13.4261 5.37092 13.7002 4.96438 14.0935 4.80747Z" fill="white"/>
<path d="M23.66 8.41026C25.0943 8.08014 26.0348 6.46721 25.5995 5.06825C25.2422 3.66114 23.6108 2.74209 22.2145 3.2118C20.9177 3.58268 20.0563 5.00508 20.349 6.31641C20.5984 7.7765 22.2155 8.82292 23.66 8.41026ZM22.6097 4.80028C23.2021 4.53944 23.9424 4.9633 24.044 5.58993C24.1785 6.1809 23.7093 6.80956 23.1015 6.85847C22.5338 6.92572 21.9793 6.46211 21.9383 5.89866C21.8849 5.43709 22.1744 4.96636 22.6097 4.80028Z" fill="white"/>
<path d="M30.116 8.10836C31.1438 8.75638 32.5893 8.56075 33.423 7.68857C34.2546 6.87141 34.4456 5.50505 33.8665 4.49532C33.2926 3.41426 31.9189 2.8294 30.7382 3.2064C29.9251 3.44584 29.2444 4.0847 28.961 4.87843C28.5113 6.05017 29.0236 7.48071 30.116 8.10836ZM31.0483 4.8285C31.5883 4.54932 32.3091 4.85907 32.5 5.42456C32.7208 5.97273 32.3871 6.64928 31.8183 6.81435C31.2721 7.0059 30.6314 6.64725 30.4815 6.10009C30.3234 5.61306 30.5801 5.04145 31.0483 4.8285Z" fill="white"/>
<path d="M39.2578 3.20115C37.9374 3.55776 37.0555 4.9985 37.3553 6.32613C37.6058 7.74037 39.1366 8.77456 40.5545 8.43629C42.0113 8.16628 43.0196 6.57474 42.6274 5.15337C42.3142 3.71773 40.6777 2.74569 39.2578 3.20115ZM39.8337 6.84985C39.2321 6.76426 38.806 6.11114 38.9713 5.53138C39.0493 5.22266 39.2721 4.95468 39.5637 4.82223C40.1951 4.50025 41.0206 4.99442 41.0637 5.68728C41.1561 6.35059 40.5001 6.98129 39.8337 6.84985Z" fill="white"/>
<path d="M4.89937 15.7106C5.90861 16.1834 7.1889 15.9165 7.94352 15.1085C8.72792 14.3137 8.91991 13.0238 8.40759 12.0354C7.86549 10.9177 6.48356 10.2809 5.2772 10.6426C4.16939 10.9371 3.32442 11.9896 3.29568 13.1298C3.23202 14.2108 3.90245 15.2766 4.89937 15.7106ZM4.95276 13.0167C5.02463 12.6855 5.26385 12.3941 5.57802 12.2616C6.20328 11.9641 6.99794 12.4471 7.0503 13.1226C7.14989 13.7778 6.51847 14.4126 5.85523 14.3056C5.25358 14.2373 4.80594 13.6005 4.95276 13.0167Z" fill="white"/>
<path d="M15.0843 15.8794C16.4816 15.5982 17.46 14.0994 17.1438 12.7178C16.8912 11.2454 15.2475 10.2031 13.7968 10.6392C12.4631 10.9754 11.5524 12.4131 11.843 13.752C12.0812 15.1927 13.6489 16.2452 15.0843 15.8794ZM14.0956 12.2572C14.688 11.9882 15.4354 12.407 15.5401 13.0367C15.6695 13.6012 15.2526 14.2084 14.6777 14.3001C14.1233 14.4112 13.5422 13.9955 13.4508 13.4463C13.3471 12.9623 13.6346 12.4386 14.0956 12.2572Z" fill="white"/>
<path d="M23.5113 15.8954C24.9446 15.6498 25.9713 14.1245 25.6468 12.7154C25.3953 11.2848 23.8388 10.2506 22.4107 10.6113C21.0606 10.8895 20.0873 12.2976 20.3286 13.6487C20.5093 15.1088 22.0575 16.2204 23.5113 15.8954ZM22.6212 12.2477C23.1756 12.0134 23.8645 12.369 24.0185 12.9395C24.1982 13.4816 23.8522 14.1184 23.2988 14.2702C22.7495 14.4526 22.116 14.0848 21.9744 13.5356C21.8162 13.0241 22.116 12.4311 22.6212 12.2477Z" fill="white"/>
<path d="M30.9281 10.6078C29.7515 10.8513 28.8264 11.9477 28.8028 13.1428C28.733 14.3472 29.5872 15.5189 30.7566 15.8389C31.8059 16.1629 33.0174 15.739 33.6611 14.8627C34.2114 14.1444 34.3542 13.1439 34.0297 12.3002C33.5985 11.0826 32.2001 10.3011 30.9281 10.6078ZM31.7207 14.2911C31.1899 14.4195 30.6149 14.0568 30.4774 13.5392C30.3162 13.0216 30.6231 12.4194 31.1385 12.2421C31.7207 12.0047 32.4332 12.4153 32.542 13.0236C32.6765 13.5769 32.2833 14.1821 31.7207 14.2911Z" fill="white"/>
<path d="M39.2587 10.6521C37.9425 11.0066 37.0595 12.4402 37.3531 13.7658C37.5985 15.1893 39.1406 16.2326 40.5636 15.8852C41.9928 15.6152 42.9907 14.0725 42.6427 12.6695C42.3603 11.2033 40.7022 10.1895 39.2587 10.6521ZM40.0349 14.3161C39.4075 14.3476 38.8583 13.7444 38.9455 13.129C38.9825 12.7612 39.2299 12.4229 39.5687 12.2711C40.1591 11.9766 40.9301 12.3862 41.0451 13.022C41.2002 13.6436 40.6796 14.3099 40.0349 14.3161Z" fill="white"/>
<path d="M31.1047 17.4868C28.5831 17.4766 26.0615 17.4796 23.54 17.4806C23.3244 17.4654 23.0975 17.4847 22.8962 17.4796C22.886 17.4796 22.8747 17.4806 22.8624 17.4806C22.1889 17.4806 21.5153 17.4806 20.8418 17.4796C20.7854 17.4745 20.7289 17.4745 20.6735 17.4806C18.2977 17.4715 14.8593 17.4582 14.3131 17.5642C13.3275 17.7822 12.4702 18.4914 12.0718 19.4125C11.5913 20.4844 11.771 21.813 12.5287 22.7158C13.1416 23.4718 14.1108 23.9191 15.0882 23.9048C20.4312 23.9028 25.7741 23.915 31.117 23.8987C32.8059 23.8773 34.2741 22.351 34.2238 20.6769C34.2576 19.009 32.7854 17.502 31.1047 17.4868ZM32.5626 20.7768C32.5348 21.6103 31.7525 22.3184 30.9137 22.2756C25.6375 22.2766 20.3603 22.2766 15.0841 22.2756C14.2484 22.3143 13.462 21.6123 13.4353 20.7788C13.3706 19.9566 14.0636 19.169 14.8911 19.1211C15.6303 19.0915 20.6693 19.1231 22.8254 19.1099C25.5503 19.1109 28.2751 19.1058 31.001 19.1139C31.8716 19.1027 32.6303 19.9179 32.5626 20.7768Z" fill="white"/>
<path d="M5.4691 18.0482C4.56766 18.2235 3.78532 18.8868 3.46705 19.7406C3.14159 20.5812 3.27711 21.5798 3.82434 22.3001C4.45267 23.1662 5.6344 23.6002 6.67444 23.3058C8.0307 22.9808 8.95267 21.5064 8.63851 20.1543C8.38697 18.7523 6.8767 17.7313 5.4691 18.0482ZM7.0307 20.9358C6.89415 21.6786 5.88286 22.0362 5.31715 21.5186C4.67033 21.0316 4.88389 19.8975 5.66623 19.6795C6.41777 19.3962 7.24426 20.1767 7.0307 20.9358Z" fill="white"/>
<path d="M39.4475 18.054C38.582 18.2353 37.8284 18.865 37.5019 19.6801C37.1416 20.5462 37.2791 21.5947 37.8613 22.3344C38.4691 23.1403 39.5615 23.5632 40.5563 23.336C41.543 23.1373 42.3736 22.3456 42.6169 21.3766C42.8551 20.4993 42.6036 19.513 41.9742 18.8538C41.3489 18.1752 40.3541 17.8512 39.4475 18.054ZM41.0656 20.7816C41.0389 21.5488 40.0574 22.0501 39.4239 21.5896C38.7227 21.1759 38.814 20.0205 39.5717 19.7199C40.273 19.3653 41.1631 20.0184 41.0656 20.7816Z" fill="white"/>
</g>
<defs>
<clipPath id="clip0_222_8345">
<rect width="46" height="27" fill="white"/>
</clipPath>
</defs>
</svg>
