<svg width="20" height="23" viewBox="0 0 20 23" fill="none" xmlns="http://www.w3.org/2000/svg">
<path d="M5.23768 0.943296C4.92663 1.10798 4.82599 1.33669 4.82599 1.89477V2.33849L4.54238 2.37051C4.11696 2.42083 3.29814 2.63582 2.90474 2.8005C2.16369 3.11613 1.39519 3.72453 0.960623 4.3375C0.567225 4.891 0.256166 5.64578 0.0823391 6.46459C0.0045744 6.82597 0 7.22852 0 12.0911C0 16.9537 0.0045744 17.3562 0.0823391 17.7176C0.333931 18.907 0.777647 19.7578 1.51413 20.4623C2.13624 21.0569 2.81325 21.4183 3.75558 21.6562C4.56982 21.862 5.02269 21.8803 8.90178 21.8803C12.3051 21.8803 12.5064 21.8849 12.607 21.9627C13.0599 22.3057 13.7689 22.6168 14.4185 22.7449C16.0104 23.0697 17.6938 22.5299 18.7779 21.3451C20.2051 19.7807 20.4064 17.3928 19.2491 15.65L19.0295 15.3161L19.002 11.039C18.9792 6.87172 18.9746 6.75278 18.8831 6.35023C18.5995 5.17004 18.1924 4.41069 17.465 3.71538C16.7103 2.9972 15.7405 2.55348 14.542 2.38881L14.1578 2.33391V1.8902C14.1578 1.33669 14.0571 1.10798 13.7461 0.943296C13.499 0.810638 13.3161 0.810638 13.0599 0.938721C12.726 1.11255 12.6757 1.22233 12.6574 1.80328L12.6391 2.30189H9.49187H6.34469L6.32639 1.80786C6.31267 1.37786 6.29894 1.3001 6.20288 1.16287C6.07937 0.98904 5.79119 0.842659 5.57619 0.838085C5.49843 0.838085 5.34747 0.883829 5.23768 0.943296ZM12.6482 4.28718C12.6482 4.69888 12.6619 4.77664 12.7534 4.9093C12.9318 5.17461 13.0782 5.25238 13.3938 5.25238C13.929 5.25238 14.1532 4.95504 14.1578 4.25516V3.85261L14.3773 3.88463C14.8348 3.94868 15.2968 4.09506 15.7085 4.29633C16.4312 4.65313 16.9436 5.2478 17.2318 6.06205C17.3736 6.46459 17.4971 7.13246 17.4971 7.50298V7.74543H9.49187H1.48668V7.47554C1.48668 6.85799 1.72912 5.95226 2.04018 5.43078C2.12709 5.2844 2.34209 5.01451 2.52049 4.83611C3.0008 4.34665 3.74643 4.00814 4.61099 3.88463L4.82599 3.85261V4.25516C4.83056 4.95504 5.05471 5.25238 5.58991 5.25238C5.90555 5.25238 6.05193 5.17461 6.2349 4.9093C6.32182 4.77664 6.33554 4.69888 6.33554 4.28718V3.81144H9.49187H12.6482V4.28718ZM17.5428 11.6565C17.5428 12.9785 17.5337 14.0581 17.5245 14.0581C17.5154 14.0581 17.3736 13.9986 17.2089 13.9209C16.5913 13.6418 16.2345 13.5778 15.3242 13.5824C14.3545 13.5824 14.048 13.651 13.3115 14.0078C11.3125 14.9867 10.2924 17.187 10.8413 19.3369C10.8962 19.5657 11.006 19.895 11.0838 20.0643L11.2256 20.3708H8.25221C4.52408 20.3708 4.19472 20.3387 3.27527 19.8859C2.55251 19.5291 2.04018 18.9344 1.75199 18.1202C1.47753 17.3379 1.47753 17.3654 1.45466 13.1295L1.43179 9.25498H9.4873H17.5428V11.6565ZM16.0607 15.1377C17.1403 15.3755 18.0277 16.2264 18.3708 17.3517C18.5034 17.7862 18.5172 18.5044 18.3982 18.9527C18.0277 20.3433 16.7652 21.3314 15.3471 21.3314C13.929 21.3314 12.6665 20.3433 12.296 18.9527C12.177 18.5044 12.1908 17.7862 12.3234 17.3517C12.4973 16.7844 12.7214 16.4093 13.1285 16.0022C13.3298 15.8009 13.6088 15.5676 13.7552 15.4853C14.4459 15.0782 15.2556 14.9547 16.0607 15.1377Z" fill="#DB14EC"/>
<path d="M5.99259 11.8404C5.96972 11.8496 5.86908 11.8679 5.77302 11.8862C5.39792 11.9457 5.10059 12.3619 5.10059 12.8239C5.10059 13.9447 6.60556 14.2008 7.02183 13.1533C7.05843 13.0572 7.07215 12.9017 7.05385 12.7233C7.02183 12.3848 6.85715 12.1195 6.58727 11.9731C6.41344 11.8816 6.09323 11.8084 5.99259 11.8404Z" fill="#DB14EC"/>
<path d="M9.16293 11.8806C8.89304 11.9858 8.76496 12.091 8.6323 12.3151C8.53166 12.4844 8.50879 12.5804 8.50879 12.8275C8.50879 13.0791 8.53166 13.1614 8.64602 13.3489C8.92506 13.7972 9.54718 13.9482 10.0046 13.6783C10.6359 13.3078 10.645 12.3426 10.0183 11.9766C9.77132 11.8302 9.40537 11.7891 9.16293 11.8806Z" fill="#DB14EC"/>
<path d="M5.60793 15.367C5.4524 15.4448 5.32432 15.5546 5.24656 15.6735C5.13677 15.8382 5.12305 15.9022 5.12305 16.2362C5.12305 16.5792 5.13677 16.6296 5.26028 16.8125C5.6491 17.3706 6.55026 17.3569 6.90249 16.7851C7.45142 15.9022 6.54111 14.905 5.60793 15.367Z" fill="#DB14EC"/>
<path d="M13.9478 16.5697C13.7694 16.6795 13.6687 16.8213 13.6047 17.0408C13.5269 17.3336 13.6184 17.5532 13.9798 17.9237L14.2954 18.2485L13.9935 18.5458C13.8243 18.7059 13.6642 18.9026 13.6276 18.9849C13.4126 19.4881 13.7648 20.0508 14.2909 20.0508C14.5516 20.0508 14.7254 19.9547 15.0731 19.6116L15.375 19.3189L15.6449 19.5979C15.988 19.941 16.1023 20.005 16.4134 20.005C16.8342 20.005 17.1316 19.7077 17.1316 19.2869C17.1316 19.0032 17.0675 18.8797 16.7427 18.5458L16.4454 18.2393L16.7016 17.9877C17.0218 17.6767 17.0995 17.5303 17.0995 17.233C17.0995 16.9265 16.9669 16.7023 16.7016 16.5788C16.3265 16.3958 16.0657 16.469 15.6678 16.8716L15.375 17.1689L15.0731 16.8761C14.9084 16.7115 14.7163 16.5559 14.6477 16.5331C14.4418 16.4553 14.1079 16.4736 13.9478 16.5697Z" fill="#DB14EC"/>
</svg>
