<svg width="18" height="17" viewBox="0 0 18 17" fill="none" xmlns="http://www.w3.org/2000/svg">
<path fill-rule="evenodd" clip-rule="evenodd" d="M8.89903 6.02385C7.1291 6.02385 5.69428 7.375 5.69428 9.04173C5.69428 10.7085 7.1291 12.0596 8.89903 12.0596C10.669 12.0596 12.1038 10.7085 12.1038 9.04173C12.1038 7.375 10.669 6.02385 8.89903 6.02385ZM6.97618 9.04173C6.97618 8.04169 7.83707 7.231 8.89903 7.231C9.96099 7.231 10.8219 8.04169 10.8219 9.04173C10.8219 10.0418 9.96099 10.8525 8.89903 10.8525C7.83707 10.8525 6.97618 10.0418 6.97618 9.04173Z" fill="#D9D9D9"/>
<path fill-rule="evenodd" clip-rule="evenodd" d="M8.89903 2C7.06937 2 5.41503 2.85224 4.07201 3.88776C2.72166 4.92893 1.61751 6.20786 0.87554 7.18112L0.814348 7.26125C0.367681 7.84571 0 8.32682 0 9.04173C0 9.75664 0.367681 10.2378 0.814348 10.8222L0.87554 10.9023C1.61751 11.8756 2.72166 13.1545 4.07202 14.1957C5.41503 15.2312 7.06937 16.0835 8.89903 16.0835C10.7287 16.0835 12.383 15.2312 13.726 14.1957C15.0764 13.1545 16.1806 11.8756 16.9225 10.9023L16.9837 10.8222C17.4304 10.2378 17.7981 9.75664 17.7981 9.04173C17.7981 8.32682 17.4304 7.84571 16.9837 7.26125L16.9225 7.18112C16.1806 6.20786 15.0764 4.92893 13.726 3.88776C12.383 2.85224 10.7287 2 8.89903 2ZM1.91688 7.8851C2.62558 6.95549 3.65476 5.76965 4.88412 4.82177C6.12081 3.86824 7.49255 3.20715 8.89903 3.20715C10.3055 3.20715 11.6773 3.86824 12.9139 4.82177C14.1433 5.76965 15.1725 6.95549 15.8812 7.8851C16.4144 8.58457 16.5162 8.7532 16.5162 9.04173C16.5162 9.33026 16.4144 9.49889 15.8812 10.1984C15.1725 11.128 14.1433 12.3138 12.9139 13.2617C11.6773 14.2152 10.3055 14.8763 8.89903 14.8763C7.49255 14.8763 6.12081 14.2152 4.88412 13.2617C3.65476 12.3138 2.62558 11.128 1.91688 10.1984C1.38364 9.49889 1.2819 9.33026 1.2819 9.04173C1.2819 8.7532 1.38364 8.58457 1.91688 7.8851Z" fill="#D9D9D9"/>
<path fill-rule="evenodd" clip-rule="evenodd" d="M17.4596 0.459326C17.7134 0.713167 17.7134 1.12472 17.4596 1.37856L2.37881 16.4593C2.12497 16.7132 1.71341 16.7132 1.45957 16.4593C1.20573 16.2055 1.20573 15.7939 1.45957 15.5401L16.5403 0.459326C16.7942 0.205485 17.2057 0.205485 17.4596 0.459326Z" fill="#D9D9D9"/>
</svg>
