<svg width="36" height="36" viewBox="0 0 36 36" fill="none" xmlns="http://www.w3.org/2000/svg">
<path d="M26.9995 11.8647C26.9545 11.8647 26.9245 11.8647 26.8795 11.8647H26.8045C23.9695 11.7747 21.8545 9.58465 21.8545 6.88465C21.8545 4.12465 24.1045 1.88965 26.8495 1.88965C29.5945 1.88965 31.8445 4.13965 31.8445 6.88465C31.8295 9.59965 29.7145 11.7897 27.0145 11.8797C27.0145 11.8647 27.0145 11.8647 26.9995 11.8647ZM26.8495 4.12466C25.3345 4.12466 24.1045 5.35466 24.1045 6.86966C24.1045 8.35466 25.2595 9.55466 26.7445 9.61466C26.7595 9.59966 26.8795 9.59966 27.0145 9.61466C28.4695 9.53966 29.5945 8.33966 29.6095 6.86966C29.6095 5.35466 28.3795 4.12466 26.8495 4.12466Z" fill="#E4E4E4"/>
<path d="M27.0148 22.92C26.4298 22.92 25.8448 22.875 25.2598 22.77C24.6448 22.665 24.2398 22.08 24.3448 21.465C24.4498 20.85 25.0348 20.445 25.6498 20.55C27.4948 20.865 29.4448 20.52 30.7498 19.65C31.4548 19.185 31.8298 18.6 31.8298 18.015C31.8298 17.43 31.4398 16.86 30.7498 16.395C29.4448 15.525 27.4648 15.18 25.6048 15.51C24.9898 15.63 24.4048 15.21 24.2998 14.595C24.1948 13.98 24.5998 13.395 25.2148 13.29C27.6598 12.855 30.1948 13.32 31.9948 14.52C33.3148 15.405 34.0798 16.665 34.0798 18.015C34.0798 19.35 33.3298 20.625 31.9948 21.525C30.6298 22.425 28.8598 22.92 27.0148 22.92Z" fill="#E4E4E4"/>
<path d="M8.95473 11.865C8.93973 11.865 8.92473 11.865 8.92473 11.865C6.22473 11.775 4.10973 9.58499 4.09473 6.88499C4.09473 4.12499 6.34473 1.875 9.08973 1.875C11.8347 1.875 14.0847 4.125 14.0847 6.87C14.0847 9.585 11.9697 11.775 9.26973 11.865L8.95473 10.74L9.05973 11.865C9.02973 11.865 8.98473 11.865 8.95473 11.865ZM9.10473 9.61501C9.19473 9.61501 9.26973 9.615 9.35973 9.63C10.6947 9.57 11.8647 8.36999 11.8647 6.88499C11.8647 5.36999 10.6347 4.13999 9.11973 4.13999C7.60473 4.13999 6.37473 5.36999 6.37473 6.88499C6.37473 8.35499 7.51473 9.54 8.96973 9.63C8.98473 9.615 9.04473 9.61501 9.10473 9.61501Z" fill="#E4E4E4"/>
<path d="M8.94 22.92C7.095 22.92 5.325 22.425 3.96 21.525C2.64 20.64 1.875 19.365 1.875 18.015C1.875 16.68 2.64 15.405 3.96 14.52C5.76 13.32 8.295 12.855 10.74 13.29C11.355 13.395 11.76 13.98 11.655 14.595C11.55 15.21 10.965 15.63 10.35 15.51C8.49 15.18 6.525 15.525 5.205 16.395C4.5 16.86 4.125 17.43 4.125 18.015C4.125 18.6 4.515 19.185 5.205 19.65C6.51 20.52 8.46 20.865 10.305 20.55C10.92 20.445 11.505 20.865 11.61 21.465C11.715 22.08 11.31 22.665 10.695 22.77C10.11 22.875 9.525 22.92 8.94 22.92Z" fill="#E4E4E4"/>
<path d="M17.9995 23.0697C17.9545 23.0697 17.9245 23.0697 17.8795 23.0697H17.8045C14.9695 22.9797 12.8545 20.7897 12.8545 18.0897C12.8545 15.3297 15.1045 13.0947 17.8495 13.0947C20.5945 13.0947 22.8445 15.3447 22.8445 18.0897C22.8295 20.8047 20.7145 22.9947 18.0145 23.0847C18.0145 23.0697 18.0145 23.0697 17.9995 23.0697ZM17.8495 15.3297C16.3345 15.3297 15.1045 16.5597 15.1045 18.0747C15.1045 19.5597 16.2595 20.7597 17.7445 20.8197C17.7595 20.8047 17.8795 20.8047 18.0145 20.8197C19.4695 20.7447 20.5945 19.5447 20.6095 18.0747C20.6095 16.5747 19.3795 15.3297 17.8495 15.3297Z" fill="#E4E4E4"/>
<path d="M17.9999 34.1401C16.1999 34.1401 14.3999 33.6751 13.0049 32.7301C11.6849 31.8451 10.9199 30.5851 10.9199 29.2351C10.9199 27.9001 11.6699 26.6101 13.0049 25.7251C15.8099 23.8651 20.2049 23.8651 22.9949 25.7251C24.3149 26.6101 25.0799 27.8701 25.0799 29.2201C25.0799 30.5551 24.3299 31.8451 22.9949 32.7301C21.5999 33.6601 19.7999 34.1401 17.9999 34.1401ZM14.2499 27.6151C13.5449 28.0801 13.1699 28.6651 13.1699 29.2501C13.1699 29.8351 13.5599 30.4051 14.2499 30.8701C16.2749 32.2351 19.7099 32.2351 21.7349 30.8701C22.4399 30.4051 22.8149 29.8201 22.8149 29.2351C22.8149 28.6501 22.4249 28.0801 21.7349 27.6151C19.7249 26.2501 16.2899 26.2651 14.2499 27.6151Z" fill="#E4E4E4"/>
</svg>
