<svg width="29" height="28" viewBox="0 0 29 28" fill="none" xmlns="http://www.w3.org/2000/svg">
<path fill-rule="evenodd" clip-rule="evenodd" d="M21.3186 8.5601V8.5601C20.8878 8.5601 20.4974 8.32258 20.3138 7.9514C19.9823 7.27974 19.5608 6.42137 19.3113 5.95408C18.9429 5.25922 18.3458 4.85489 17.5189 4.84937C17.505 4.84827 12.1092 4.84827 12.0953 4.84937C11.2684 4.85489 10.6725 5.25922 10.3029 5.95408C10.0546 6.42137 9.63302 7.27974 9.30156 7.9514C9.11792 8.32258 8.7264 8.5601 8.29677 8.5601V8.5601C5.99154 8.5601 4.12402 10.3464 4.12402 12.5503V19.1079C4.12402 21.3107 5.99154 23.0981 8.29677 23.0981H21.3186C23.6226 23.0981 25.4902 21.3107 25.4902 19.1079V12.5503C25.4902 10.3464 23.6226 8.5601 21.3186 8.5601Z" stroke="white" stroke-width="1.80771" stroke-linecap="round" stroke-linejoin="round"/>
<path fill-rule="evenodd" clip-rule="evenodd" d="M11.1359 15.4365C11.1347 17.373 12.7874 18.9572 14.8085 18.9561C16.8262 18.9539 18.4743 17.3763 18.4777 15.4442C18.4812 13.5043 16.8343 11.9235 14.8108 11.9213C12.7759 11.9191 11.1197 13.5264 11.1359 15.4365Z" stroke="white" stroke-width="1.80771" stroke-linecap="round" stroke-linejoin="round"/>
<path d="M20.4691 12.8521C20.3575 12.8411 20.2473 12.8133 20.1239 12.7658C19.9866 12.7074 19.8677 12.6332 19.7528 12.5215C19.5463 12.3115 19.4268 12.0368 19.4268 11.7534C19.4268 11.6028 19.4589 11.4536 19.5218 11.3185C19.5847 11.1815 19.6594 11.066 19.7942 10.9404C19.8968 10.8549 20.0019 10.7861 20.1456 10.7256C20.5716 10.5641 21.0784 10.6606 21.3951 10.9634C21.4901 11.0529 21.57 11.1608 21.6144 11.2518L21.6406 11.3164C21.7044 11.4536 21.7366 11.6028 21.7366 11.7534C21.7366 12.0425 21.6186 12.3099 21.3995 12.5325C21.2102 12.7148 20.9615 12.8269 20.6963 12.8521L20.5817 12.8575L20.4691 12.8521Z" fill="white"/>
</svg>
