<svg width="36" height="36" viewBox="0 0 36 36" fill="none" xmlns="http://www.w3.org/2000/svg">
<path d="M5.89518 24.9447C5.61018 24.9447 5.32518 24.8397 5.10018 24.6147C4.66518 24.1797 4.66518 23.4597 5.10018 23.0247L23.0252 5.09969C23.4602 4.66469 24.1802 4.66469 24.6152 5.09969C25.0502 5.53469 25.0502 6.25469 24.6152 6.68969L6.69018 24.6297C6.48018 24.8397 6.18018 24.9447 5.89518 24.9447Z" fill="#E4E4E4"/>
<path d="M16.6501 28.5453C16.3651 28.5453 16.0801 28.4403 15.8551 28.2153C15.4201 27.7803 15.4201 27.0603 15.8551 26.6253L17.6551 24.8253C18.0901 24.3903 18.8101 24.3903 19.2451 24.8253C19.6801 25.2603 19.6801 25.9803 19.2451 26.4153L17.4451 28.2153C17.2351 28.4253 16.9501 28.5453 16.6501 28.5453Z" fill="#E4E4E4"/>
<path d="M20.6852 24.51C20.4002 24.51 20.1152 24.405 19.8902 24.18C19.4552 23.745 19.4552 23.025 19.8902 22.59L23.4752 19.005C23.9102 18.57 24.6302 18.57 25.0652 19.005C25.5002 19.44 25.5002 20.16 25.0652 20.595L21.4802 24.18C21.2702 24.39 20.9702 24.51 20.6852 24.51Z" fill="#E4E4E4"/>
<path d="M16.6499 34.1254C15.1799 34.1254 13.7099 33.2254 11.9249 31.4404L4.55987 24.0754C0.974871 20.4904 0.989871 18.1804 4.60487 14.5654L14.5649 4.60536C18.1799 0.990359 20.4899 0.975359 24.0749 4.56036L31.4399 11.9254C35.0249 15.5104 35.0099 17.8204 31.3949 21.4354L21.4349 31.3954C19.6199 33.2104 18.1349 34.1254 16.6499 34.1254ZM19.3499 4.12536C18.5699 4.12536 17.5799 4.77036 16.1549 6.19536L6.19487 16.1554C4.76987 17.5804 4.12487 18.5704 4.12487 19.3354C4.12487 20.1154 4.72487 21.0604 6.14987 22.4854L13.5149 29.8504C14.9399 31.2754 15.8699 31.8754 16.6499 31.8754C16.6499 31.8754 16.6499 31.8754 16.6649 31.8754C17.4449 31.8754 18.4199 31.2304 19.8449 29.8054L29.8049 19.8454C31.2299 18.4204 31.8749 17.4304 31.8749 16.6654C31.8749 15.8854 31.2749 14.9404 29.8499 13.5154L22.4849 6.15036C21.0749 4.72536 20.1299 4.12536 19.3499 4.12536Z" fill="#E4E4E4"/>
<path d="M33 34.125H3C2.385 34.125 1.875 33.615 1.875 33C1.875 32.385 2.385 31.875 3 31.875H33C33.615 31.875 34.125 32.385 34.125 33C34.125 33.615 33.615 34.125 33 34.125Z" fill="#E4E4E4"/>
</svg>
