<svg width="32" height="31" viewBox="0 0 32 31" fill="none" xmlns="http://www.w3.org/2000/svg">
<path d="M19.7921 4.56738H11.8754C8.9606 4.56738 6.59766 6.80596 6.59766 9.56738V19.5674" stroke="url(#paint0_linear_124_10237)" stroke-width="2"/>
<path d="M11.5557 15.1924C11.5557 13.7019 11.5573 12.6723 11.6509 11.8858C11.7417 11.1233 11.9072 10.7146 12.1507 10.4139C12.3056 10.2227 12.4875 10.0501 12.6923 9.90117C13.0242 9.65993 13.4792 9.49667 14.3038 9.40859C15.1453 9.31872 16.2431 9.31738 17.8126 9.31738C19.3821 9.31738 20.4799 9.31872 21.3214 9.40859C22.1461 9.49667 22.601 9.65993 22.9329 9.90117C23.1378 10.0501 23.3196 10.2227 23.4745 10.4139L24.2516 9.78453L23.4745 10.4139C23.718 10.7146 23.8836 11.1233 23.9743 11.8858C24.0679 12.6723 24.0696 13.7019 24.0696 15.1924V20.1924C24.0696 21.6829 24.0679 22.7125 23.9743 23.4989C23.8836 24.2615 23.718 24.6702 23.4745 24.9708C23.3196 25.1621 23.1378 25.3347 22.9329 25.4836C22.601 25.7248 22.1461 25.8881 21.3214 25.9762C20.4799 26.066 19.3821 26.0674 17.8126 26.0674C16.2431 26.0674 15.1453 26.066 14.3038 25.9762C13.4792 25.8881 13.0242 25.7248 12.6923 25.4836L12.1043 26.2925L12.6923 25.4836C12.4875 25.3347 12.3056 25.1621 12.1507 24.9708C11.9072 24.6702 11.7417 24.2615 11.6509 23.4989C11.5573 22.7125 11.5557 21.6829 11.5557 20.1924V15.1924Z" stroke="url(#paint1_linear_124_10237)" stroke-width="2"/>
<defs>
<linearGradient id="paint0_linear_124_10237" x1="19.7921" y1="12.0674" x2="6.59766" y2="12.0674" gradientUnits="userSpaceOnUse">
<stop stop-color="#AD00FF"/>
<stop offset="1" stop-color="#DB14EC"/>
</linearGradient>
<linearGradient id="paint1_linear_124_10237" x1="25.0696" y1="17.6924" x2="10.5557" y2="17.6924" gradientUnits="userSpaceOnUse">
<stop stop-color="#AD00FF"/>
<stop offset="1" stop-color="#DB14EC"/>
</linearGradient>
</defs>
</svg>
