<svg width="31" height="30" viewBox="0 0 31 30" fill="none" xmlns="http://www.w3.org/2000/svg">
<path d="M11.75 13.4375C9.85 13.4375 8.3125 11.9 8.3125 10C8.3125 8.1 9.85 6.5625 11.75 6.5625C13.65 6.5625 15.1875 8.1 15.1875 10C15.1875 11.9 13.65 13.4375 11.75 13.4375ZM11.75 8.4375C10.8875 8.4375 10.1875 9.1375 10.1875 10C10.1875 10.8625 10.8875 11.5625 11.75 11.5625C12.6125 11.5625 13.3125 10.8625 13.3125 10C13.3125 9.1375 12.6125 8.4375 11.75 8.4375Z" fill="#949CAD"/>
<path d="M19.25 28.4375H11.75C4.9625 28.4375 2.0625 25.5375 2.0625 18.75V11.25C2.0625 4.4625 4.9625 1.5625 11.75 1.5625H16.75C17.2625 1.5625 17.6875 1.9875 17.6875 2.5C17.6875 3.0125 17.2625 3.4375 16.75 3.4375H11.75C5.9875 3.4375 3.9375 5.4875 3.9375 11.25V18.75C3.9375 24.5125 5.9875 26.5625 11.75 26.5625H19.25C25.0125 26.5625 27.0625 24.5125 27.0625 18.75V12.5C27.0625 11.9875 27.4875 11.5625 28 11.5625C28.5125 11.5625 28.9375 11.9875 28.9375 12.5V18.75C28.9375 25.5375 26.0375 28.4375 19.25 28.4375Z" fill="#949CAD"/>
<path d="M27.0625 7.1875H20.1875C19.675 7.1875 19.25 6.7625 19.25 6.25C19.25 5.7375 19.675 5.3125 20.1875 5.3125H27.0625C27.575 5.3125 28 5.7375 28 6.25C28 6.7625 27.575 7.1875 27.0625 7.1875Z" fill="#949CAD"/>
<path d="M23.625 10.625C23.1125 10.625 22.6875 10.2 22.6875 9.6875V2.8125C22.6875 2.3 23.1125 1.875 23.625 1.875C24.1375 1.875 24.5625 2.3 24.5625 2.8125V9.6875C24.5625 10.2 24.1375 10.625 23.625 10.625Z" fill="#949CAD"/>
<path d="M3.83665 24.625C3.53665 24.625 3.23665 24.475 3.06165 24.2125C2.77415 23.7875 2.88665 23.2 3.31165 22.9125L9.47415 18.775C10.8241 17.875 12.6866 17.975 13.9116 19.0125L14.3241 19.375C14.9491 19.9125 16.0116 19.9125 16.6241 19.375L21.8241 14.9125C23.1616 13.775 25.2366 13.775 26.5741 14.9125L28.6116 16.6625C28.9991 17 29.0491 17.5875 28.7116 17.9875C28.3741 18.375 27.7866 18.425 27.3866 18.0875L25.3491 16.3375C24.7241 15.8 23.6616 15.8 23.0491 16.3375L17.8491 20.8C16.5241 21.9375 14.4366 21.9375 13.0991 20.8L12.6866 20.4375C12.1116 19.95 11.1616 19.9 10.5241 20.3375L4.37415 24.475C4.19915 24.575 4.01165 24.625 3.83665 24.625Z" fill="#949CAD"/>
</svg>
