<svg width="31" height="30" viewBox="0 0 31 30" fill="none" xmlns="http://www.w3.org/2000/svg">
<path d="M11.75 13.4375C9.85 13.4375 8.3125 11.9 8.3125 10C8.3125 8.1 9.85 6.5625 11.75 6.5625C13.65 6.5625 15.1875 8.1 15.1875 10C15.1875 11.9 13.65 13.4375 11.75 13.4375ZM11.75 8.4375C10.8875 8.4375 10.1875 9.1375 10.1875 10C10.1875 10.8625 10.8875 11.5625 11.75 11.5625C12.6125 11.5625 13.3125 10.8625 13.3125 10C13.3125 9.1375 12.6125 8.4375 11.75 8.4375Z" fill="#949CAD"/>
<path d="M19.25 28.4375H11.75C4.9625 28.4375 2.0625 25.5375 2.0625 18.75V11.25C2.0625 4.4625 4.9625 1.5625 11.75 1.5625H16.75C17.2625 1.5625 17.6875 1.9875 17.6875 2.5C17.6875 3.0125 17.2625 3.4375 16.75 3.4375H11.75C5.9875 3.4375 3.9375 5.4875 3.9375 11.25V18.75C3.9375 24.5125 5.9875 26.5625 11.75 26.5625H19.25C25.0125 26.5625 27.0625 24.5125 27.0625 18.75V12.5C27.0625 11.9875 27.4875 11.5625 28 11.5625C28.5125 11.5625 28.9375 11.9875 28.9375 12.5V18.75C28.9375 25.5375 26.0375 28.4375 19.25 28.4375Z" fill="#949CAD"/>
<path d="M27.0625 7.1875H20.1875C19.675 7.1875 19.25 6.7625 19.25 6.25C19.25 5.7375 19.675 5.3125 20.1875 5.3125H27.0625C27.575 5.3125 28 5.7375 28 6.25C28 6.7625 27.575 7.1875 27.0625 7.1875Z" fill="#949CAD"/>
<path d="M23.625 10.625C23.1125 10.625 22.6875 10.2 22.6875 9.6875V2.8125C22.6875 2.3 23.1125 1.875 23.625 1.875C24.1375 1.875 24.5625 2.3 24.5625 2.8125V9.6875C24.5625 10.2 24.1375 10.625 23.625 10.625Z" fill="#949CAD"/>
<path d="M3.83762 24.6252C3.53762 24.6252 3.23762 24.4752 3.06262 24.2127C2.77512 23.7877 2.88762 23.2002 3.31262 22.9127L9.47512 18.7752C10.8251 17.8752 12.6876 17.9752 13.9126 19.0127L14.3251 19.3752C14.9501 19.9127 16.0126 19.9127 16.6251 19.3752L21.8251 14.9127C23.1626 13.7752 25.2376 13.7752 26.5751 14.9127L28.6126 16.6627C29.0001 17.0002 29.0501 17.5877 28.7126 17.9877C28.3751 18.3752 27.7876 18.4252 27.3876 18.0877L25.3501 16.3377C24.7251 15.8002 23.6626 15.8002 23.0501 16.3377L17.8501 20.8002C16.5251 21.9377 14.4376 21.9377 13.1001 20.8002L12.6876 20.4377C12.1126 19.9502 11.1626 19.9002 10.5251 20.3377L4.37512 24.4752C4.20012 24.5752 4.01262 24.6252 3.83762 24.6252Z" fill="#949CAD"/>
</svg>
