<svg width="15" height="20" viewBox="0 0 15 20" fill="none" xmlns="http://www.w3.org/2000/svg">
<path d="M9.81798 16.9172L9.32617 16.5316L9.81798 16.9172ZM5.18332 16.9172L4.69151 17.3029L5.18332 16.9172ZM7.50065 18.8381V18.2131V18.8381ZM13.5423 8.50741C13.5423 9.52949 13.0093 10.8971 12.1704 12.3802C11.3454 13.8388 10.2792 15.3163 9.32617 16.5316L10.3098 17.3029C11.2816 16.0637 12.39 14.531 13.2585 12.9956C14.1131 11.4847 14.7923 9.87468 14.7923 8.50741H13.5423ZM5.67514 16.5316C4.72214 15.3163 3.65589 13.8388 2.83086 12.3802C1.992 10.8971 1.45898 9.52949 1.45898 8.50741H0.208984C0.208984 9.87468 0.888239 11.4847 1.74285 12.9956C2.6113 14.531 3.71972 16.0637 4.69151 17.3029L5.67514 16.5316ZM1.45898 8.50741C1.45898 4.84659 4.2063 1.9585 7.50065 1.9585V0.708496C3.4312 0.708496 0.208984 4.24414 0.208984 8.50741H1.45898ZM7.50065 1.9585C10.795 1.9585 13.5423 4.84659 13.5423 8.50741H14.7923C14.7923 4.24414 11.5701 0.708496 7.50065 0.708496V1.9585ZM9.32617 16.5316C8.81037 17.1893 8.47076 17.619 8.16664 17.8952C7.88928 18.1472 7.70413 18.2131 7.50065 18.2131V19.4631C8.1082 19.4631 8.57962 19.2088 9.00712 18.8205C9.40785 18.4565 9.82139 17.9257 10.3098 17.3029L9.32617 16.5316ZM4.69151 17.3029C5.17991 17.9257 5.59345 18.4565 5.99419 18.8205C6.42168 19.2088 6.8931 19.4631 7.50065 19.4631V18.2131C7.29717 18.2131 7.11203 18.1472 6.83467 17.8952C6.53055 17.619 6.19094 17.1893 5.67514 16.5316L4.69151 17.3029ZM4.37565 8.8335C4.37565 10.5594 5.77476 11.9585 7.50065 11.9585V10.7085C6.46512 10.7085 5.62565 9.86903 5.62565 8.8335H4.37565ZM7.50065 11.9585C9.22654 11.9585 10.6257 10.5594 10.6257 8.8335H9.37565C9.37565 9.86903 8.53619 10.7085 7.50065 10.7085V11.9585ZM10.6257 8.8335C10.6257 7.10761 9.22654 5.7085 7.50065 5.7085V6.9585C8.53619 6.9585 9.37565 7.79796 9.37565 8.8335H10.6257ZM7.50065 5.7085C5.77476 5.7085 4.37565 7.10761 4.37565 8.8335H5.62565C5.62565 7.79796 6.46512 6.9585 7.50065 6.9585V5.7085Z" fill="#AE00FE"/>
</svg>
