<svg width="36" height="36" viewBox="0 0 36 36" fill="none" xmlns="http://www.w3.org/2000/svg">
<path d="M19.5154 33.7498C18.6154 33.7498 17.2204 33.3148 15.8854 31.1248L13.2454 26.8498C12.9904 26.4298 12.2104 26.0248 11.7304 26.0548L6.72035 26.3098C3.72035 26.4598 2.67043 25.2148 2.29543 24.4648C1.92043 23.7148 1.59036 22.1098 3.54036 19.8298L6.51042 16.3798C6.81042 16.0198 6.97538 15.2398 6.84038 14.7898L5.32536 9.94481C4.56036 7.51481 5.41537 6.20982 5.98537 5.63982C6.55537 5.06982 7.87538 4.2448 10.3054 5.0548L14.7304 6.5098C15.1354 6.6448 15.8854 6.52481 16.2304 6.28481L20.8504 2.9548C22.9654 1.4248 24.4954 1.8298 25.2004 2.2048C25.9054 2.5798 27.1054 3.59982 27.0604 6.20982L26.9553 11.8948C26.9403 12.3148 27.2853 13.0048 27.6153 13.2598L31.3354 16.0798C33.3604 17.6248 33.4354 19.1698 33.3004 19.9648C33.1654 20.7598 32.5654 22.1998 30.1354 22.9498L25.2904 24.4648C24.8404 24.5998 24.2854 25.1848 24.1654 25.6348L23.0104 30.0448C22.2454 32.9398 20.7454 33.5848 19.9054 33.7048C19.8004 33.7348 19.6654 33.7498 19.5154 33.7498ZM11.7753 23.8048C13.0653 23.8048 14.4903 24.5848 15.1503 25.6648L17.7904 29.9398C18.5404 31.1698 19.2154 31.5448 19.5754 31.4848C19.9204 31.4398 20.4604 30.8698 20.8354 29.4898L21.9903 25.0798C22.3053 23.8798 23.4303 22.6948 24.6153 22.3348L29.4604 20.8198C30.3904 20.5348 30.9903 20.0698 31.0803 19.5898C31.1703 19.1098 30.7504 18.4798 29.9704 17.8798L26.2504 15.0598C25.3354 14.3698 24.6754 12.9898 24.6904 11.8498L24.7954 6.16478C24.8104 5.15978 24.5704 4.40982 24.1354 4.18481C23.7004 3.95982 22.9654 4.18479 22.1404 4.76979L17.5204 8.09979C16.6054 8.75979 15.0904 8.99982 13.9954 8.63982L9.57039 7.18482C8.64039 6.88482 7.89043 6.89978 7.54543 7.24478C7.20043 7.58978 7.17034 8.33979 7.45534 9.26979L8.97035 14.1148C9.34535 15.2998 9.01534 16.9048 8.20534 17.8348L5.23537 21.2848C4.29037 22.3798 4.14038 23.1448 4.30538 23.4598C4.45538 23.7748 5.17542 24.1198 6.60042 24.0448L11.6104 23.7898C11.6704 23.8048 11.7303 23.8048 11.7753 23.8048Z" fill="#E4E4E4"/>
<path d="M32.8645 34.1252C32.5795 34.1252 32.2945 34.0202 32.0695 33.7952L27.5245 29.2502C27.0895 28.8152 27.0895 28.0952 27.5245 27.6602C27.9595 27.2252 28.6795 27.2252 29.1145 27.6602L33.6595 32.2052C34.0945 32.6402 34.0945 33.3602 33.6595 33.7952C33.4345 34.0202 33.1495 34.1252 32.8645 34.1252Z" fill="#E4E4E4"/>
</svg>
