<svg width="24" height="25" viewBox="0 0 24 25" fill="none" xmlns="http://www.w3.org/2000/svg">
<path d="M21.5 12.2353C21.5 17.482 17.2467 21.7353 12 21.7353C6.75329 21.7353 2.5 17.482 2.5 12.2353C2.5 6.98859 6.75329 2.73529 12 2.73529C17.2467 2.73529 21.5 6.98859 21.5 12.2353Z" fill="#E6E6E6" stroke="#707581" stroke-linecap="round" stroke-linejoin="round"/>
<path d="M12.1439 12.2635C12.0487 12.2555 11.9506 12.2562 11.8586 12.2637C10.5236 12.1938 9.46997 11.0941 9.46997 9.74527C9.46997 8.34799 10.5957 7.21527 12 7.21527C13.3951 7.21527 14.5288 8.34834 14.53 9.74315C14.5212 11.097 13.4732 12.1925 12.1439 12.2635Z" fill="#979797" stroke="#979797" stroke-width="1.5" stroke-linecap="round" stroke-linejoin="round"/>
<path d="M17.9216 19.3354C16.3154 20.6804 14.2563 21.4854 12 21.4854C9.74374 21.4854 7.68458 20.6804 6.07839 19.3354C6.24614 18.7712 6.67665 18.1776 7.44684 17.6589C8.66809 16.8483 10.3195 16.4203 12.0075 16.4203C13.6963 16.4203 15.3419 16.8487 16.5521 17.6581C17.323 18.177 17.7538 18.771 17.9216 19.3354Z" fill="#979797" stroke="#979797" stroke-width="1.5" stroke-linecap="round" stroke-linejoin="round"/>
</svg>
