<svg width="36" height="36" viewBox="0 0 36 36" fill="none" xmlns="http://www.w3.org/2000/svg">
<path d="M17.9998 34.1252C17.6398 34.1252 17.2798 34.0802 16.9348 33.9752C9.14978 31.8302 3.50977 24.5552 3.50977 16.6652V10.0802C3.50977 8.40016 4.72477 6.58524 6.28477 5.94024L14.6398 2.5202C16.8148 1.6352 19.1998 1.6352 21.3598 2.5202L29.7148 5.94024C31.2748 6.58524 32.4898 8.40016 32.4898 10.0802V16.6652C32.4898 24.5402 26.8348 31.8152 19.0648 33.9752C18.7198 34.0802 18.3598 34.1252 17.9998 34.1252ZM17.9998 4.12521C17.1448 4.12521 16.3048 4.29023 15.4948 4.62023L7.13979 8.04018C6.41979 8.34018 5.75977 9.31518 5.75977 10.0952V16.6802C5.75977 23.5652 10.7098 29.9252 17.5348 31.8152C17.8348 31.9052 18.1648 31.9052 18.4648 31.8152C25.2898 29.9252 30.2398 23.5652 30.2398 16.6802V10.0952C30.2398 9.31518 29.5798 8.34018 28.8598 8.04018L20.5048 4.62023C19.6948 4.29023 18.8548 4.12521 17.9998 4.12521Z" fill="#E4E4E4"/>
<path d="M18 19.875C15.72 19.875 13.875 18.03 13.875 15.75C13.875 13.47 15.72 11.625 18 11.625C20.28 11.625 22.125 13.47 22.125 15.75C22.125 18.03 20.28 19.875 18 19.875ZM18 13.875C16.965 13.875 16.125 14.715 16.125 15.75C16.125 16.785 16.965 17.625 18 17.625C19.035 17.625 19.875 16.785 19.875 15.75C19.875 14.715 19.035 13.875 18 13.875Z" fill="#E4E4E4"/>
<path d="M18 24.375C17.385 24.375 16.875 23.865 16.875 23.25V18.75C16.875 18.135 17.385 17.625 18 17.625C18.615 17.625 19.125 18.135 19.125 18.75V23.25C19.125 23.865 18.615 24.375 18 24.375Z" fill="#E4E4E4"/>
</svg>
