<svg width="25" height="25" viewBox="0 0 25 25" fill="none" xmlns="http://www.w3.org/2000/svg">
<path d="M4.56104 7.09961H6.33137H20.494" stroke="#ABAEB7" stroke-width="1.5" stroke-linecap="round" stroke-linejoin="round"/>
<path d="M18.7236 7.1V19.7C18.7236 20.1774 18.5371 20.6352 18.2051 20.9728C17.8731 21.3104 17.4228 21.5 16.9533 21.5H8.10163C7.63211 21.5 7.18182 21.3104 6.84982 20.9728C6.51782 20.6352 6.3313 20.1774 6.3313 19.7V7.1M8.98679 7.1V5.3C8.98679 4.82261 9.17331 4.36477 9.50531 4.02721C9.83731 3.68964 10.2876 3.5 10.7571 3.5H14.2978C14.7673 3.5 15.2176 3.68964 15.5496 4.02721C15.8816 4.36477 16.0681 4.82261 16.0681 5.3V7.1" stroke="#ABAEB7" stroke-width="1.5" stroke-linecap="round" stroke-linejoin="round"/>
<path d="M10.7571 11.5996V16.9996" stroke="#ABAEB7" stroke-width="1.5" stroke-linecap="round" stroke-linejoin="round"/>
<path d="M14.2981 11.5996V16.9996" stroke="#ABAEB7" stroke-width="1.5" stroke-linecap="round" stroke-linejoin="round"/>
</svg>
