<svg width="18" height="15" viewBox="0 0 18 15" fill="none" xmlns="http://www.w3.org/2000/svg">
<path fill-rule="evenodd" clip-rule="evenodd" d="M8.99998 4.06949C7.20997 4.06949 5.75888 5.43597 5.75888 7.12161C5.75888 8.80725 7.20997 10.1737 8.99998 10.1737C10.79 10.1737 12.2411 8.80725 12.2411 7.12161C12.2411 5.43597 10.79 4.06949 8.99998 4.06949ZM7.05532 7.12161C7.05532 6.11023 7.92597 5.29034 8.99998 5.29034C10.074 5.29034 10.9446 6.11023 10.9446 7.12161C10.9446 8.133 10.074 8.95288 8.99998 8.95288C7.92597 8.95288 7.05532 8.133 7.05532 7.12161Z" fill="#D9D9D9"/>
<path fill-rule="evenodd" clip-rule="evenodd" d="M8.99998 0C7.14956 0 5.47646 0.861912 4.11821 1.90917C2.75254 2.96215 1.63586 4.25559 0.885472 5.23989L0.823586 5.32094C0.371852 5.91203 0 6.39859 0 7.12161C0 7.84464 0.371852 8.3312 0.823586 8.92229L0.885473 9.00334C1.63586 9.98764 2.75254 11.2811 4.11821 12.3341C5.47646 13.3813 7.14956 14.2432 8.99998 14.2432C10.8504 14.2432 12.5235 13.3813 13.8818 12.3341C15.2474 11.2811 16.3641 9.98763 17.1145 9.00333L17.1764 8.9223C17.6281 8.3312 18 7.84464 18 7.12161C18 6.39859 17.6281 5.91203 17.1764 5.32094L17.1145 5.23989C16.3641 4.25559 15.2474 2.96215 13.8818 1.90917C12.5235 0.861912 10.8504 0 8.99998 0ZM1.93863 5.95187C2.65536 5.01171 3.69622 3.81241 4.93952 2.85378C6.19024 1.88943 7.57755 1.22085 8.99998 1.22085C10.4224 1.22085 11.8097 1.88943 13.0604 2.85378C14.3037 3.81241 15.3446 5.0117 16.0613 5.95186C16.6006 6.65927 16.7035 6.82981 16.7035 7.12161C16.7035 7.41342 16.6006 7.58396 16.0613 8.29136C15.3446 9.23152 14.3037 10.4308 13.0604 11.3894C11.8097 12.3538 10.4224 13.0224 8.99998 13.0224C7.57755 13.0224 6.19024 12.3538 4.93952 11.3894C3.69622 10.4308 2.65536 9.23152 1.93863 8.29136C1.39934 7.58396 1.29644 7.41342 1.29644 7.12161C1.29644 6.82981 1.39934 6.65927 1.93863 5.95187Z" fill="#D9D9D9"/>
</svg>
