<svg width="20" height="15" viewBox="0 0 20 15" fill="none" xmlns="http://www.w3.org/2000/svg">
<path d="M9.15293 0.0839996C8.99389 0.163521 8.86268 0.350397 7.39948 2.54122C6.52872 3.84537 5.75338 4.9706 5.67386 5.03819C5.5347 5.16145 5.31602 5.24893 5.14902 5.24893C4.90648 5.24893 4.6878 5.10579 2.83494 3.71814C1.18885 2.48555 0.878713 2.26687 0.731598 2.24301C0.333991 2.18337 0 2.47362 0 2.87123C0 3.00244 1.00197 9.66237 1.13318 10.4099L1.15704 10.5371H9.54259H17.9242L17.948 10.4298C17.9599 10.3661 18.2224 8.68028 18.5325 6.68031C18.9222 4.1396 19.0852 2.97461 19.0772 2.81159C19.0613 2.61676 19.0414 2.56507 18.9261 2.44579C18.7631 2.27482 18.5762 2.2112 18.3536 2.24301C18.2065 2.26687 17.8963 2.48555 16.2502 3.71814C14.3974 5.10579 14.1787 5.24893 13.9362 5.24893C13.7692 5.24893 13.5505 5.16145 13.4113 5.03819C13.3318 4.9706 12.5763 3.8732 11.7294 2.60483C10.8825 1.33646 10.139 0.250995 10.0754 0.191354C10.0118 0.131713 9.90839 0.0641193 9.84874 0.044239C9.66187 -0.0273304 9.33981 -0.0074501 9.15293 0.0839996Z" fill="#ECC140"/>
<path d="M1.15234 12.9269C1.15234 13.6346 1.16825 14.0203 1.20006 14.1316C1.26367 14.3384 1.53405 14.6127 1.73683 14.6724C1.84418 14.7042 4.035 14.7121 9.62934 14.7042L17.3668 14.6922L17.5417 14.573C17.6531 14.4934 17.7485 14.3781 17.824 14.239L17.9314 14.0203V12.9547V11.8891H9.54187H1.15234V12.9269Z" fill="#ECC140"/>
</svg>
