<svg width="26" height="19" viewBox="0 0 26 19" fill="none" xmlns="http://www.w3.org/2000/svg">
<path d="M5.8553 0.090435C5.58802 0.189888 5.23994 0.469599 5.13427 0.687153C5.08454 0.78039 3.90975 3.88208 2.52362 7.5805C0.317007 13.4669 0 14.3495 0 14.6479C0 15.0395 0.136748 15.3627 0.41646 15.6238C0.801841 15.9905 0.702388 15.9843 4.86699 15.9843H8.67728L8.88241 16.8669C8.99429 17.358 9.12482 17.8304 9.16833 17.9174C9.29887 18.1723 9.72776 18.5203 10.0013 18.5949C10.1691 18.6384 12.4752 18.6571 17.4478 18.6447L24.6457 18.626L24.9379 18.452C25.2797 18.2531 25.5284 17.8739 25.5843 17.4699C25.6154 17.2461 25.2735 15.804 23.5953 9.08473C22.2961 3.85722 21.5192 0.873629 21.4259 0.693369C21.3265 0.506895 21.1773 0.3515 20.9784 0.227182L20.68 0.0407085L13.3702 0.0282764C7.84436 0.0220604 6.0107 0.0344925 5.8553 0.090435ZM22.2091 9.28363C23.2969 13.6347 24.1795 17.215 24.1795 17.2399C24.1795 17.271 21.0965 17.2896 17.3235 17.2896H10.4737L8.8016 9.49497C7.88788 5.20605 7.11711 1.62574 7.10468 1.53872L7.0736 1.37711H13.6499H20.2325L22.2091 9.28363ZM7.17927 8.58746C7.85058 11.714 8.41622 14.3495 8.43487 14.4428L8.47216 14.6168H4.92914H1.38613L3.63004 8.62475C5.29588 4.17423 5.88638 2.66378 5.91746 2.76324C5.94232 2.83783 6.51418 5.4609 7.17927 8.58746Z" fill="#DB14EC"/>
<path d="M11.6485 6.09437C11.2694 6.32436 11.2197 6.83405 11.5429 7.16971L11.7107 7.34375H15.3097C17.653 7.34375 18.9459 7.31889 19.0267 7.28159C19.3002 7.13241 19.4245 6.57299 19.2318 6.29949C19.0019 5.97005 19.0454 5.97627 15.3097 5.97627C12.0277 5.97627 11.8288 5.98249 11.6485 6.09437Z" fill="#DB14EC"/>
<path d="M11.5611 8.83036C11.356 9.03548 11.2814 9.25925 11.3373 9.49545C11.3622 9.58869 11.4616 9.73787 11.5611 9.83732L11.7351 10.0176H15.9432C19.5671 10.0176 20.17 10.0051 20.3254 9.92434C20.5554 9.80624 20.6362 9.65706 20.6362 9.33384C20.6362 9.01062 20.5554 8.86144 20.3254 8.74333C20.17 8.66253 19.5671 8.6501 15.9432 8.6501H11.7351L11.5611 8.83036Z" fill="#DB14EC"/>
<path d="M12.8609 11.504C12.7117 11.6594 12.6807 11.7402 12.6807 11.9888C12.6807 12.2499 12.7117 12.3245 12.8734 12.4799L13.0598 12.6602H16.6588H20.2577L20.4442 12.4799C20.6058 12.3245 20.6369 12.2499 20.6369 11.9888C20.6369 11.7402 20.6058 11.6594 20.4567 11.504L20.2764 11.3238H16.6588H13.0412L12.8609 11.504Z" fill="#DB14EC"/>
</svg>
