<svg width="12" height="8" viewBox="0 0 12 8" fill="none" xmlns="http://www.w3.org/2000/svg">
<path d="M11.3601 1.17508C11.5258 0.976203 11.499 0.680626 11.3001 0.514893C11.1012 0.34916 10.8056 0.37603 10.6399 0.57491L7.27073 4.61792C6.59396 5.43005 6.11788 5.99958 5.70494 6.37247C5.30163 6.73666 5.0233 6.8524 4.75001 6.8524C4.47672 6.8524 4.19839 6.73666 3.79508 6.37247C3.38214 5.99958 2.90606 5.43004 2.22929 4.61791L1.36012 3.57491C1.19438 3.37603 0.898805 3.34916 0.699925 3.51489C0.501046 3.68063 0.474175 3.9762 0.639908 4.17508L1.5332 5.24704C2.18024 6.02351 2.69842 6.64534 3.16677 7.06826C3.65056 7.50513 4.1451 7.7899 4.75001 7.7899C5.35493 7.7899 5.84946 7.50513 6.33325 7.06826C6.80159 6.64535 7.31977 6.02352 7.9668 5.24706L11.3601 1.17508Z" fill="#2D264B"/>
</svg>
