<svg width="16" height="18" viewBox="0 0 16 18" fill="none" xmlns="http://www.w3.org/2000/svg">
<path d="M13.3914 17.28C12.4196 18.23 11.3585 18.08 10.337 17.63C9.25609 17.17 8.2644 17.15 7.12396 17.63C5.69592 18.25 4.94224 18.07 4.08939 17.28C-0.75006 12.25 -0.0360432 4.59 5.45792 4.31C6.7967 4.38 7.72889 5.05 8.51232 5.11C9.68252 4.87 10.8031 4.18 12.0527 4.27C13.5501 4.39 14.6806 4.99 15.4244 6.07C12.3303 7.94 13.0642 12.05 15.9004 13.2C15.3351 14.7 14.6013 16.19 13.3815 17.29L13.3914 17.28ZM8.41315 4.25C8.2644 2.02 10.0594 0.18 12.1221 0C12.4097 2.58 9.80152 4.5 8.41315 4.25Z" fill="white"/>
</svg>
