<svg width="18" height="18" viewBox="0 0 18 18" fill="none" xmlns="http://www.w3.org/2000/svg">
<path d="M9.00304 3.88824C10.5679 3.88824 11.6234 4.56416 12.2253 5.12898L14.5771 2.83268C13.1327 1.49009 11.253 0.666016 9.00304 0.666016C5.74378 0.666016 2.92896 2.53639 1.55859 5.25861L4.25304 7.3512C4.92896 5.34194 6.79934 3.88824 9.00304 3.88824Z" fill="#EA4335"/>
<path d="M17 9.18417C17 8.49899 16.9444 7.99899 16.8241 7.48047H9V10.5731H13.5926C13.5 11.3416 13 12.499 11.8889 13.2768L14.5185 15.3138C16.0926 13.8601 17 11.7212 17 9.18417Z" fill="#4285F4"/>
<path d="M4.26056 10.6467C4.08464 10.1282 3.98278 9.57263 3.98278 8.99855C3.98278 8.42448 4.08464 7.86892 4.2513 7.35041L1.55686 5.25781C0.992043 6.38744 0.667969 7.65596 0.667969 8.99855C0.667969 10.3411 0.992043 11.6097 1.55686 12.7393L4.26056 10.6467Z" fill="#FBBC05"/>
<path d="M9.00159 17.3317C11.2516 17.3317 13.1405 16.5909 14.5201 15.3132L11.8905 13.2761C11.1868 13.7669 10.2423 14.1094 9.00159 14.1094C6.79789 14.1094 4.92752 12.6557 4.26085 10.6465L1.56641 12.7391C2.93678 15.4613 5.74233 17.3317 9.00159 17.3317Z" fill="#34A853"/>
</svg>
