<svg width="24" height="25" viewBox="0 0 24 25" fill="none" xmlns="http://www.w3.org/2000/svg">
<path d="M19.9983 11.8896H21.9983C21.9983 6.75962 18.1253 2.89062 12.9883 2.89062V4.89062C17.0503 4.89062 19.9983 7.83362 19.9983 11.8896Z" fill="url(#paint0_linear_446_25418)"/>
<path d="M13.0003 8.89086C15.1033 8.89086 16.0003 9.78786 16.0003 11.8909H18.0003C18.0003 8.66586 16.2253 6.89086 13.0003 6.89086V8.89086ZM16.4223 14.3339C16.2301 14.1592 15.9776 14.0661 15.7181 14.0741C15.4585 14.0821 15.2123 14.1907 15.0313 14.3769L12.6383 16.8379C12.0623 16.7279 10.9043 16.3669 9.71228 15.1779C8.52028 13.9849 8.15928 12.8239 8.05228 12.2519L10.5113 9.85786C10.6977 9.67699 10.8064 9.43069 10.8144 9.17107C10.8225 8.91146 10.7292 8.65891 10.5543 8.46686L6.85928 4.40386C6.68432 4.21122 6.44116 4.09437 6.18143 4.07812C5.92171 4.06188 5.66588 4.14752 5.46828 4.31686L3.29828 6.17786C3.12539 6.35138 3.0222 6.58231 3.00828 6.82686C2.99328 7.07686 2.70728 12.9989 7.29928 17.5929C11.3053 21.5979 16.3233 21.8909 17.7053 21.8909C17.9073 21.8909 18.0313 21.8849 18.0643 21.8829C18.3088 21.8692 18.5396 21.7655 18.7123 21.5919L20.5723 19.4209C20.7417 19.2234 20.8276 18.9676 20.8115 18.7079C20.7954 18.4482 20.6788 18.205 20.4863 18.0299L16.4223 14.3339Z" fill="url(#paint1_linear_446_25418)"/>
<defs>
<linearGradient id="paint0_linear_446_25418" x1="21.9983" y1="7.39012" x2="12.9883" y2="7.39012" gradientUnits="userSpaceOnUse">
<stop stop-color="#AD00FF"/>
<stop offset="1" stop-color="#DB14EC"/>
</linearGradient>
<linearGradient id="paint1_linear_446_25418" x1="20.8134" y1="12.9835" x2="3" y2="12.9835" gradientUnits="userSpaceOnUse">
<stop stop-color="#AD00FF"/>
<stop offset="1" stop-color="#DB14EC"/>
</linearGradient>
</defs>
</svg>
