<svg width="25" height="25" viewBox="0 0 25 25" fill="none" xmlns="http://www.w3.org/2000/svg">
<path d="M12.5 2.39062C10.3128 2.39321 8.21584 3.26323 6.66923 4.80984C5.12261 6.35646 4.25259 8.45338 4.25001 10.6406C4.24739 12.428 4.83124 14.167 5.91201 15.5906C5.91201 15.5906 6.13701 15.8869 6.17376 15.9296L12.5 23.3906L18.8293 15.9259C18.8623 15.8861 19.088 15.5906 19.088 15.5906L19.0888 15.5884C20.169 14.1653 20.7526 12.4272 20.75 10.6406C20.7474 8.45338 19.8774 6.35646 18.3308 4.80984C16.7842 3.26323 14.6873 2.39321 12.5 2.39062ZM12.5 13.6406C11.9067 13.6406 11.3266 13.4647 10.8333 13.135C10.34 12.8054 9.95543 12.3369 9.72837 11.7887C9.50131 11.2405 9.4419 10.6373 9.55765 10.0554C9.67341 9.47341 9.95913 8.93886 10.3787 8.5193C10.7982 8.09975 11.3328 7.81402 11.9147 7.69827C12.4967 7.58251 13.0999 7.64192 13.6481 7.86899C14.1962 8.09605 14.6648 8.48057 14.9944 8.97391C15.3241 9.46726 15.5 10.0473 15.5 10.6406C15.499 11.436 15.1826 12.1985 14.6202 12.7608C14.0578 13.3232 13.2954 13.6396 12.5 13.6406Z" fill="url(#paint0_linear_446_25427)"/>
<defs>
<linearGradient id="paint0_linear_446_25427" x1="20.75" y1="12.8906" x2="4.25" y2="12.8906" gradientUnits="userSpaceOnUse">
<stop stop-color="#AD00FF"/>
<stop offset="1" stop-color="#DB14EC"/>
</linearGradient>
</defs>
</svg>
