<svg width="49" height="17" viewBox="0 0 49 17" fill="none" xmlns="http://www.w3.org/2000/svg">
<path d="M18 16.2675H21.885L24.382 0.730469H20.22L18 16.2675Z" fill="#1565C0"/>
<path d="M14.6733 0.452782L11.0663 11.5508L10.3853 8.42478C8.44328 3.70778 5.11328 1.76578 5.11328 1.76578L8.56928 15.9898H12.7313L18.5583 0.45178H14.6733V0.452782ZM45.7483 0.452782H41.5863L35.2043 15.9908H39.0883L39.9203 13.7708H44.9143L45.4693 15.9908H48.8003L45.7483 0.452782ZM40.7543 10.9958L42.9743 5.16978L44.0843 10.9958H40.7543ZM29.6553 4.89178C29.6553 4.05978 30.2103 3.22678 32.1523 3.22678C33.5393 3.22678 34.9273 4.33678 34.9273 4.33678L35.7593 1.00778C35.7593 1.00778 33.8173 0.175781 32.1523 0.175781C27.9903 0.175781 26.0483 2.39578 26.0483 4.89278C26.0483 9.88678 31.5973 9.05478 31.5973 11.5518C31.5973 12.1068 31.3203 12.9388 29.1003 12.9388C26.8803 12.9388 25.2163 12.1068 25.2163 12.1068L24.6613 15.4358C24.6613 15.4358 26.0483 16.2678 28.8233 16.2678C31.3203 16.5448 35.2053 14.3258 35.2053 10.9958C35.2053 7.11178 29.6553 6.83478 29.6553 4.89178Z" fill="#1565C0"/>
<path d="M10.5118 9.05347L9.12478 2.11747C9.12478 2.11747 8.56978 0.730469 6.90478 0.730469C5.23978 0.730469 0.800781 0.730469 0.800781 0.730469C0.800781 0.730469 8.84678 3.22747 10.5118 9.05347Z" fill="#FF9800"/>
</svg>
