<svg width="16" height="16" viewBox="0 0 16 16" fill="none" xmlns="http://www.w3.org/2000/svg">
<g clip-path="url(#clip0_142_71462)">
<path d="M3.41299 3.23659C3.70367 2.9415 3.70009 2.46664 3.405 2.17596C3.10991 1.88528 2.63505 1.88886 2.34437 2.18395L3.41299 3.23659ZM5.6 1.85182L5.06568 1.32551C4.7781 1.61747 4.77811 2.0862 5.06569 2.37814L5.6 1.85182ZM6.23263 3.56279C6.52331 3.85788 6.99817 3.86145 7.29326 3.57077C7.58835 3.28009 7.59193 2.80523 7.30125 2.51014L6.23263 3.56279ZM7.30126 1.1934C7.59193 0.898303 7.58834 0.423443 7.29324 0.132773C6.99815 -0.157898 6.52328 -0.154307 6.23261 0.140793L7.30126 1.1934ZM8 13.2503C6.56427 13.2503 5.56405 13.2487 4.80961 13.1457C4.07791 13.0458 3.69022 12.8634 3.41299 12.582L2.34437 13.6346C2.94582 14.2452 3.70457 14.5088 4.60676 14.6319C5.4862 14.752 6.6073 14.7503 8 14.7503V13.2503ZM1.25 7.9093C1.25 9.32407 1.24845 10.4595 1.36633 11.3495C1.48691 12.26 1.74447 13.0256 2.34437 13.6346L3.41299 12.582C3.13421 12.299 2.95243 11.9008 2.85334 11.1526C2.75155 10.3839 2.75 9.36586 2.75 7.9093H1.25ZM13.25 7.9093C13.25 9.36586 13.2485 10.3839 13.1467 11.1526C13.0476 11.9008 12.8658 12.299 12.587 12.582L13.6556 13.6346C14.2555 13.0256 14.5131 12.26 14.6337 11.3495C14.7515 10.4595 14.75 9.32407 14.75 7.9093H13.25ZM8 14.7503C9.3927 14.7503 10.5138 14.752 11.3932 14.6319C12.2954 14.5088 13.0542 14.2452 13.6556 13.6346L12.587 12.582C12.3098 12.8634 11.9221 13.0458 11.1904 13.1457C10.4359 13.2487 9.43573 13.2503 8 13.2503V14.7503ZM8 2.56826C9.43573 2.56826 10.4359 2.5699 11.1904 2.67287C11.9221 2.77274 12.3098 2.95515 12.587 3.23659L13.6556 2.18395C13.0542 1.57338 12.2954 1.30978 11.3932 1.18665C10.5138 1.06662 9.3927 1.06826 8 1.06826V2.56826ZM14.75 7.9093C14.75 6.49452 14.7515 5.3591 14.6337 4.46907C14.5131 3.5586 14.2555 2.79295 13.6556 2.18395L12.587 3.23659C12.8658 3.5196 13.0476 3.91779 13.1467 4.666C13.2485 5.43464 13.25 6.45273 13.25 7.9093H14.75ZM2.75 7.9093C2.75 6.45273 2.75155 5.43464 2.85334 4.666C2.95243 3.91779 3.13421 3.5196 3.41299 3.23659L2.34437 2.18395C1.74447 2.79295 1.48691 3.5586 1.36633 4.46907C1.24845 5.3591 1.25 6.49452 1.25 7.9093H2.75ZM8 1.06826C7.05865 1.06826 6.24841 1.06805 5.5621 1.10278L5.6379 2.60086C6.27809 2.56847 7.0458 2.56826 8 2.56826V1.06826ZM5.06569 2.37814L6.23263 3.56279L7.30125 2.51014L6.13431 1.3255L5.06569 2.37814ZM6.13433 2.37812L7.30126 1.1934L6.23261 0.140793L5.06568 1.32551L6.13433 2.37812Z" fill="#E4E4E4"/>
<path d="M5.6665 8.33301L6.99984 9.66634L10.3332 6.33301" stroke="#E4E4E4" stroke-width="1.5" stroke-linecap="round" stroke-linejoin="round"/>
</g>
<defs>
<clipPath id="clip0_142_71462">
<rect width="16" height="16" fill="white"/>
</clipPath>
</defs>
</svg>
