<svg width="18" height="19" viewBox="0 0 18 19" fill="none" xmlns="http://www.w3.org/2000/svg">
<path d="M9 10.8125C8.6925 10.8125 8.4375 10.5575 8.4375 10.25V6.3125C8.4375 6.005 8.6925 5.75 9 5.75C9.3075 5.75 9.5625 6.005 9.5625 6.3125V10.25C9.5625 10.5575 9.3075 10.8125 9 10.8125Z" fill="#FF5A4E"/>
<path d="M9 13.4379C8.7975 13.4379 8.60998 13.3629 8.46748 13.2204C8.39998 13.1454 8.34751 13.0629 8.30251 12.9729C8.26501 12.8829 8.25 12.7854 8.25 12.6879C8.25 12.4929 8.33248 12.2979 8.46748 12.1554C8.74498 11.8779 9.25502 11.8779 9.53252 12.1554C9.66752 12.2979 9.75 12.4929 9.75 12.6879C9.75 12.7854 9.72749 12.8829 9.68999 12.9729C9.65249 13.0629 9.60002 13.1454 9.53252 13.2204C9.39002 13.3629 9.2025 13.4379 9 13.4379Z" fill="#FF5A4E"/>
<path d="M9.00014 17.5623C8.49764 17.5623 7.98763 17.4348 7.53763 17.1723L3.08263 14.5998C2.18263 14.0748 1.62012 13.1073 1.62012 12.0648V6.93484C1.62012 5.89234 2.18263 4.92484 3.08263 4.39984L7.53763 1.82734C8.43763 1.30234 9.55515 1.30234 10.4626 1.82734L14.9176 4.39984C15.8176 4.92484 16.3802 5.89234 16.3802 6.93484V12.0648C16.3802 13.1073 15.8176 14.0748 14.9176 14.5998L10.4626 17.1723C10.0126 17.4348 9.50264 17.5623 9.00014 17.5623ZM9.00014 2.56233C8.69264 2.56233 8.37763 2.64483 8.10013 2.80233L3.64513 5.37483C3.09013 5.69733 2.74512 6.28984 2.74512 6.93484V12.0648C2.74512 12.7023 3.09013 13.3023 3.64513 13.6248L8.10013 16.1973C8.65513 16.5198 9.34514 16.5198 9.89264 16.1973L14.3476 13.6248C14.9026 13.3023 15.2477 12.7098 15.2477 12.0648V6.93484C15.2477 6.29734 14.9026 5.69733 14.3476 5.37483L9.89264 2.80233C9.62264 2.64483 9.30764 2.56233 9.00014 2.56233Z" fill="#FF5A4E"/>
</svg>
